<svg width="150" height="150" viewBox="0 0 150 150" fill="none" xmlns="http://www.w3.org/2000/svg">
<path d="M112.757 87.8569L75.0001 107.464L37.2429 87.8569C36.82 87.6354 36.3352 87.5615 35.8655 87.6469C35.3957 87.7323 34.968 87.9721 34.6501 88.3283C34.3312 88.6854 34.1411 89.1389 34.11 89.6166C34.0789 90.0943 34.2087 90.5687 34.4786 90.964L73.2215 147.985L73.4358 148.221C73.6003 148.388 73.7972 148.519 74.0144 148.607H74.1644C74.402 148.706 74.6569 148.757 74.9144 148.757C75.1718 148.757 75.4267 148.706 75.6644 148.607H75.8144C76.0315 148.519 76.2284 148.388 76.3929 148.221L76.6072 147.985L115.521 91.0283C115.791 90.6329 115.921 90.1586 115.89 89.6809C115.859 89.2032 115.669 88.7496 115.35 88.3926C115.04 88.0257 114.616 87.7735 114.146 87.6764C113.676 87.5792 113.187 87.6428 112.757 87.8569ZM72.8572 111.171V139.821L42.8572 95.614L72.8572 111.171ZM77.1429 139.821V111.171L107.143 95.614L77.1429 139.821Z" fill="white"/>
<path d="M34.2867 76.3715C34.2762 76.4783 34.2762 76.586 34.2867 76.6929V76.8C34.3387 76.8943 34.4036 76.9808 34.4795 77.0572C34.5328 77.1869 34.6132 77.3038 34.7152 77.4C34.814 77.5105 34.9297 77.6046 35.0581 77.6786C35.1313 77.7492 35.2101 77.8137 35.2938 77.8715L74.0367 97.3929C74.3157 97.5341 74.624 97.6077 74.9367 97.6077C75.2494 97.6077 75.5577 97.5341 75.8367 97.3929L114.58 77.8715C114.815 77.7655 115.021 77.6037 115.18 77.4C115.325 77.2438 115.442 77.0622 115.522 76.8643C115.512 76.8293 115.512 76.7922 115.522 76.7572C115.533 76.6503 115.533 76.5426 115.522 76.4357C115.533 76.2931 115.533 76.1498 115.522 76.0072C115.534 75.886 115.534 75.764 115.522 75.6429C115.492 75.4965 115.449 75.353 115.394 75.2143L115.715 75L76.8867 2.14288C76.8042 1.9951 76.7034 1.85831 76.5867 1.73574C76.3858 1.51477 76.141 1.33822 75.8679 1.2174C75.5949 1.09659 75.2996 1.03418 75.0009 1.03418C74.7023 1.03418 74.407 1.09659 74.134 1.2174C73.8609 1.33822 73.6161 1.51477 73.4152 1.73574C73.2985 1.85831 73.1977 1.9951 73.1152 2.14288L34.2867 75V75.1286C34.2341 75.2611 34.1911 75.3971 34.1581 75.5357C34.1478 75.6641 34.1478 75.7931 34.1581 75.9215C34.1888 76.0747 34.2318 76.2251 34.2867 76.3715ZM72.8581 92.1429L41.3152 76.1786L72.8581 62.5715V92.1429ZM77.1438 62.5715L108.687 76.1786L77.1438 92.1429V62.5715ZM77.1438 57.8572V11.8072L108.987 71.6572L77.1438 57.8572ZM72.8581 57.8572L41.0152 71.6572L72.8581 11.8072V57.8572Z" fill="white"/>
</svg>
