<svg width="150" height="150" viewBox="0 0 150 150" fill="none" xmlns="http://www.w3.org/2000/svg">
<g clip-path="url(#clip0_2163_41)">
<path d="M150 65.3088H141.956C137.895 53.2514 126.504 44.5322 113.095 44.5322C99.3765 44.5322 87.7561 53.6506 83.952 66.1419C81.5456 64.5515 78.4596 63.5663 74.9983 63.5663C71.5378 63.5663 68.4525 64.5512 66.0458 66.1416C62.2407 53.6503 50.6185 44.5325 36.9002 44.5325C23.4911 44.5325 12.1015 53.2517 8.04058 65.3091H0V71.559H6.64124C6.51334 72.6905 6.43304 73.8362 6.43304 75.0013C6.43304 91.8014 20.1005 105.467 36.9002 105.467C53.6999 105.467 67.369 91.801 67.369 75.0013C67.369 74.8261 67.3458 74.657 67.3427 74.4824H67.3646C67.3646 72.276 70.5003 69.8162 74.9986 69.8162C79.4984 69.8162 82.6326 72.276 82.6326 74.4824H82.6558C82.6526 74.6566 82.6294 74.8261 82.6294 75.0013C82.6294 91.8014 96.2953 105.467 113.095 105.467C129.895 105.467 143.564 91.801 143.564 75.0013C143.564 73.8362 143.483 72.6905 143.356 71.559H150V65.3088ZM36.9002 99.217C23.5473 99.217 12.6829 88.3527 12.6829 75.0013C12.6829 61.6468 23.5473 50.7825 36.9002 50.7825C50.2548 50.7825 61.1191 61.6468 61.1191 75.0013C61.1191 88.3527 50.2548 99.217 36.9002 99.217ZM113.095 99.217C99.744 99.217 88.8796 88.3527 88.8796 75.0013C88.8796 61.6468 99.744 50.7825 113.095 50.7825C126.45 50.7825 137.314 61.6468 137.314 75.0013C137.314 88.3527 126.45 99.217 113.095 99.217Z" fill="white"/>
</g>
<defs>
<clipPath id="clip0_2163_41">
<rect width="150" height="150" fill="white"/>
</clipPath>
</defs>
</svg>
