<svg width="150" height="150" viewBox="0 0 150 150" fill="none" xmlns="http://www.w3.org/2000/svg">
<path d="M27.2454 31.7864L31.6107 40.8098L41.513 42.1575C43.4759 42.4212 44.179 44.8528 42.8314 46.1419L35.595 53.0852L37.3821 62.929C37.7337 64.8626 35.6829 66.3274 33.9837 65.3899L25.1653 60.6438L16.347 65.3899C14.6478 66.2981 12.5091 64.8919 12.9778 62.7825L14.7357 53.0559L7.49933 46.1126C6.09308 44.7649 6.8548 42.3626 8.84699 42.0989L18.72 40.7512L23.0853 31.7278C23.9056 29.9993 26.4251 30.0286 27.2454 31.7864ZM27.9486 43.9739L25.1653 38.1731L22.3528 43.9739C22.0306 44.6477 21.3568 45.1751 20.5657 45.2923L14.2083 46.1419L18.8665 50.595C19.3939 51.1223 19.6868 51.8841 19.5403 52.6751L18.3978 59.0032L24.0228 55.9856C24.6966 55.6341 25.5462 55.5755 26.2493 55.9856L31.9036 59.0325L30.7903 52.8216C30.6146 52.0598 30.8196 51.2102 31.4349 50.595L36.0931 46.1419L29.7943 45.2923C29.0325 45.2044 28.3001 44.7063 27.9486 43.9739ZM77.1087 10.5462L81.4739 19.5696L91.4056 20.9173C93.3685 21.1809 94.0716 23.6126 92.7239 24.9309L85.4876 31.8743L87.2747 41.718C87.6263 43.6516 85.5755 45.1165 83.8763 44.179L74.9993 39.4329L66.181 44.179C64.4817 45.0872 62.3431 43.6809 62.8118 41.5716L64.5696 31.845L57.304 24.9016C55.8978 23.554 56.6595 21.1516 58.6517 20.888L68.5247 19.5403L72.89 10.5462C73.7689 8.75906 76.2591 8.78835 77.1087 10.5462ZM77.8118 22.7337L74.9993 16.9329L72.2161 22.7337C71.8939 23.4075 71.22 23.9348 70.429 24.052L64.0423 24.9016L68.7005 29.3548C69.2571 29.8821 69.5208 30.6438 69.3743 31.4348L68.2317 37.763L73.886 34.7454C74.5599 34.3938 75.3802 34.3352 76.1126 34.7454L81.7669 37.7923L80.6536 31.5813C80.4778 30.8196 80.6829 29.97 81.2982 29.3548L85.9564 24.9016L79.6575 24.0227C78.8665 23.9641 78.1634 23.4661 77.8118 22.7337ZM126.943 31.7864L131.308 40.8098L141.21 42.1575C143.173 42.4212 143.906 44.8528 142.529 46.1419L135.292 53.0852L137.079 62.929C137.431 64.8626 135.38 66.3274 133.681 65.3899L124.863 60.6438L116.044 65.3899C114.345 66.2981 112.206 64.8919 112.646 62.7825L114.404 53.0559L107.167 46.1126C105.761 44.7649 106.523 42.3626 108.515 42.0989L118.388 40.7512L122.753 31.7278C123.603 29.9993 126.122 30.0286 126.943 31.7864ZM127.646 43.9739L124.863 38.1731L122.05 43.9739C121.728 44.6477 121.083 45.1751 120.263 45.2923L113.906 46.1419L118.534 50.595C119.062 51.1223 119.355 51.8841 119.208 52.6751L118.066 59.0032L123.72 55.9856C124.394 55.6341 125.243 55.5755 125.947 55.9856L131.63 59.0325L130.517 52.8216C130.341 52.0598 130.546 51.2102 131.161 50.595L135.79 46.1419L129.492 45.2923C128.73 45.2044 127.997 44.7063 127.646 43.9739ZM64.1302 91.6106C63.4857 90.4973 63.8665 89.0618 64.9798 88.4173C66.0931 87.7727 67.5286 88.1536 68.1732 89.2669L71.2493 94.5989L82.1771 83.6712C83.0853 82.763 84.5794 82.763 85.4876 83.6712C86.3958 84.5794 86.3958 86.0735 85.4876 86.9817L72.3919 100.077C71.3079 101.161 69.4915 100.927 68.7298 99.6087L64.1302 91.6106ZM74.9993 66.8548C87.7435 66.8548 98.0853 77.1966 98.0853 89.9407C98.0853 102.685 87.7435 113.027 74.9993 113.027C62.2552 113.027 51.9134 102.685 51.9134 89.9407C51.9134 77.1966 62.2552 66.8548 74.9993 66.8548ZM88.0071 76.9329C80.8294 69.7552 69.1693 69.7552 61.9915 76.9329C54.8138 84.1106 54.8138 95.7708 61.9915 102.949C69.1693 110.126 80.8294 110.126 88.0071 102.949C95.1849 95.7415 95.1849 84.1106 88.0071 76.9329ZM74.9993 52.3528C95.7415 52.3528 112.558 69.1692 112.558 89.9114C112.558 97.763 110.156 105.058 106.025 111.093L117.245 130.517C118.329 132.333 116.835 134.384 114.902 134.091L103.417 132.275L97.265 139.833C96.181 141.24 94.1595 141.005 93.3685 139.599L85.5169 126.005C78.6614 127.997 71.3079 127.997 64.4818 126.005L56.6302 139.599C55.8392 141.005 53.8177 141.24 52.7337 139.833L46.5814 132.275L35.097 134.091C33.1341 134.413 31.7571 132.275 32.6946 130.605L43.9739 111.093C33.7786 96.1809 35.6829 76.1126 48.4564 63.3391C55.2239 56.5716 64.6282 52.3528 74.9993 52.3528ZM102.919 115.048C99.345 119.032 94.9505 122.226 89.97 124.394L95.7122 134.325L100.634 128.29C101.191 127.587 102.04 127.324 102.861 127.47L110.771 128.73L102.919 115.048ZM59.9993 124.394C55.0482 122.226 50.6536 119.032 47.0794 115.077L39.1986 128.73L47.1087 127.47C47.8997 127.324 48.7786 127.616 49.3353 128.29L54.2571 134.325L59.9993 124.394ZM98.2611 66.679C85.429 53.8469 64.5989 53.8469 51.7669 66.679C38.9349 79.511 38.9349 100.341 51.7669 113.173C64.6282 126.005 85.429 126.005 98.2611 113.173C111.093 100.341 111.093 79.511 98.2611 66.679Z" fill="white"/>
</svg>
