<svg width="150" height="150" viewBox="0 0 150 150" fill="none" xmlns="http://www.w3.org/2000/svg">
<path d="M29.1444 104.475H22.4272C17.6319 104.475 13.7305 108.376 13.7305 113.171V134.565C13.7305 139.36 17.6319 143.262 22.4272 143.262H29.1444C33.9397 143.262 37.8412 139.361 37.8412 134.565V113.171C37.8412 108.376 33.9397 104.475 29.1444 104.475ZM33.1537 134.565C33.1537 136.776 31.3552 138.574 29.1444 138.574H22.4272C20.2165 138.574 18.418 136.776 18.418 134.565V113.171C18.418 110.961 20.2165 109.162 22.4272 109.162H29.1444C31.3552 109.162 33.1537 110.961 33.1537 113.171V134.565ZM25.7858 79.6207C30.5899 79.6207 34.4987 75.7122 34.4987 70.9081C34.4987 69.491 34.1565 68.1533 33.5536 66.9694L53.9943 48.2405C55.3736 49.1036 56.9681 49.5606 58.5951 49.5592C61.7425 49.5592 64.5052 47.8813 66.0368 45.3735L82.6924 50.0563L82.6921 50.0716C82.6921 54.8757 86.6006 58.7842 91.405 58.7842C96.2094 58.7842 100.118 54.8757 100.118 50.0716C100.118 48.4356 99.6638 46.9043 98.8766 45.595L120.146 23.1521C121.399 23.8177 122.796 24.1651 124.215 24.1638C129.019 24.1638 132.928 20.2553 132.928 15.4512C132.928 10.6471 129.019 6.73828 124.215 6.73828C119.41 6.73828 115.502 10.6468 115.502 15.4509C115.5 17.0283 115.929 18.5762 116.743 19.9274L95.474 42.3703C94.2211 41.7047 92.8238 41.3572 91.405 41.3584C88.2576 41.3584 85.4946 43.0362 83.9633 45.5443L67.308 40.8615L67.3083 40.8463C67.3083 36.0422 63.3998 32.1334 58.5954 32.1334C53.791 32.1334 49.8825 36.0422 49.8825 40.8463C49.8825 42.2634 50.2247 43.6011 50.8273 44.7847L30.3866 63.5136C29.0074 62.6505 27.4129 62.1935 25.7858 62.1949C20.9817 62.1949 17.0729 66.1037 17.0729 70.9078C17.0729 75.7119 20.9817 79.6207 25.7858 79.6207ZM124.215 11.4258C126.434 11.4258 128.24 13.2313 128.24 15.4509C128.24 17.6704 126.434 19.476 124.215 19.476C121.995 19.476 120.189 17.6704 120.189 15.4509C120.189 13.2313 121.995 11.4258 124.215 11.4258ZM91.405 46.0459C93.6245 46.0459 95.4304 47.8518 95.4304 50.0713C95.4304 52.2908 93.6245 54.0964 91.405 54.0964C89.1854 54.0964 87.3796 52.2908 87.3796 50.0713C87.3796 47.8518 89.1852 46.0459 91.405 46.0459ZM58.5954 36.8209C60.8149 36.8209 62.6208 38.6268 62.6208 40.8463C62.6208 43.0658 60.8149 44.8714 58.5954 44.8714C56.3759 44.8714 54.57 43.0658 54.57 40.8463C54.57 38.6268 56.3759 36.8209 58.5954 36.8209ZM25.7858 66.8827C28.0054 66.8827 29.8112 68.6886 29.8112 70.9081C29.8112 73.1276 28.0054 74.9332 25.7858 74.9332C23.5663 74.9332 21.7604 73.1276 21.7604 70.9081C21.7604 68.6886 23.5663 66.8827 25.7858 66.8827ZM61.954 77.5913H55.2368C50.4415 77.5913 46.54 81.4928 46.54 86.2884V134.565C46.54 139.361 50.4415 143.262 55.2368 143.262H61.954C66.7493 143.262 70.6508 139.361 70.6508 134.565V86.2881C70.6508 81.4928 66.7493 77.5913 61.954 77.5913ZM65.9633 134.565C65.9633 136.776 64.1647 138.574 61.954 138.574H55.2368C53.0261 138.574 51.2275 136.776 51.2275 134.565V86.2881C51.2275 84.0773 53.0261 82.2785 55.2368 82.2785H61.954C64.1647 82.2785 65.9633 84.0773 65.9633 86.2881V134.565ZM94.7633 87.7277H88.0461C83.2508 87.7277 79.3493 91.6289 79.3493 96.4245V134.565C79.3493 139.361 83.2508 143.262 88.0461 143.262H94.7633C99.5586 143.262 103.46 139.361 103.46 134.565V96.4245C103.46 91.6292 99.5589 87.7277 94.7633 87.7277ZM98.7729 134.565C98.7729 136.776 96.9743 138.574 94.7636 138.574H88.0464C85.8356 138.574 84.0371 136.776 84.0371 134.565V96.4245C84.0371 94.2138 85.8356 92.4152 88.0464 92.4152H94.7636C96.9743 92.4152 98.7729 94.2138 98.7729 96.4245V134.565ZM127.573 52.471H120.856C116.061 52.471 112.159 56.3722 112.159 61.1678V134.565C112.159 139.361 116.06 143.262 120.856 143.262H127.573C132.368 143.262 136.27 139.361 136.27 134.565V61.1678C136.27 56.3722 132.368 52.471 127.573 52.471ZM131.582 134.565C131.582 136.776 129.784 138.574 127.573 138.574H120.856C118.645 138.574 116.847 136.776 116.847 134.565V61.1675C116.847 58.9567 118.645 57.1582 120.856 57.1582H127.573C129.784 57.1582 131.582 58.9567 131.582 61.1675V134.565Z" fill="white"/>
</svg>
