<svg width="150" height="150" viewBox="0 0 150 150" fill="none" xmlns="http://www.w3.org/2000/svg">
<path fill-rule="evenodd" clip-rule="evenodd" d="M100 20.2667H50C32.7411 20.2667 18.75 34.2578 18.75 51.5167V101.517C18.75 118.775 32.7411 132.767 50 132.767H100C117.259 132.767 131.25 118.775 131.25 101.517V51.5167C131.25 34.2578 117.259 20.2667 100 20.2667ZM120.312 101.517C120.278 112.72 111.204 121.795 100 121.829H50C38.7959 121.795 29.7218 112.72 29.6875 101.517V51.5167C29.7218 40.3127 38.7959 31.2385 50 31.2042H100C111.204 31.2385 120.278 40.3127 120.312 51.5167V101.517ZM104.688 53.0792C108.139 53.0792 110.938 50.281 110.938 46.8292C110.938 43.3775 108.139 40.5792 104.688 40.5792C101.236 40.5792 98.4375 43.3775 98.4375 46.8292C98.4375 50.281 101.236 53.0792 104.688 53.0792ZM75 48.3917C59.467 48.3917 46.875 60.9837 46.875 76.5167C46.875 92.0498 59.467 104.642 75 104.642C90.5331 104.642 103.125 92.0498 103.125 76.5167C103.142 69.0523 100.184 61.889 94.9056 56.611C89.6275 51.3329 82.4644 48.3751 75 48.3917ZM57.8125 76.5167C57.8125 86.0092 65.5075 93.7042 75 93.7042C84.4925 93.7042 92.1875 86.0092 92.1875 76.5167C92.1875 67.0242 84.4925 59.3292 75 59.3292C65.5075 59.3292 57.8125 67.0242 57.8125 76.5167Z" fill="black"/>
</svg>
