<svg width="150" height="150" viewBox="0 0 150 150" fill="none" xmlns="http://www.w3.org/2000/svg">
<path d="M101.952 58.0897L76.171 43.1952C75.8147 42.9895 75.4106 42.8812 74.9992 42.8812C74.5877 42.8812 74.1836 42.9895 73.8273 43.1952L48.046 58.1015C47.6901 58.307 47.3944 58.6025 47.1888 58.9583C46.9831 59.3141 46.8746 59.7178 46.8742 60.1288V89.8827C46.8746 90.2937 46.9831 90.6974 47.1888 91.0532C47.3944 91.4091 47.6901 91.7046 48.046 91.9101L73.8273 106.805C74.1859 107.004 74.5891 107.108 74.9992 107.109C75.4108 107.109 75.815 106.999 76.171 106.793L101.952 91.8983C102.308 91.6928 102.604 91.3973 102.81 91.0415C103.015 90.6857 103.124 90.282 103.124 89.871V60.1171C103.124 59.7061 103.015 59.3024 102.81 58.9466C102.604 58.5907 102.308 58.2953 101.952 58.0897ZM74.9992 47.9413L96.1867 60.164L74.9992 72.2929L53.9054 60.1288L74.9992 47.9413ZM51.5617 64.1835L72.6554 76.3593V100.711L51.5617 88.5351V64.1835ZM77.3429 100.711V76.3593L98.4366 64.2772V88.5233L77.3429 100.711ZM69.1398 20.9062L72.6554 17.3905V35.1562C72.6554 35.7778 72.9023 36.3739 73.3419 36.8134C73.7814 37.253 74.3776 37.4999 74.9992 37.4999C75.6208 37.4999 76.2169 37.253 76.6564 36.8134C77.096 36.3739 77.3429 35.7778 77.3429 35.1562V17.3788L80.8585 20.8944C81.0766 21.1138 81.3359 21.2878 81.6215 21.4065C81.9071 21.5251 82.2133 21.5861 82.5226 21.5858C82.9881 21.5885 83.4439 21.4526 83.8318 21.1952C84.2198 20.9379 84.5223 20.5708 84.7008 20.1409C84.8793 19.7109 84.9258 19.2376 84.8342 18.7811C84.7426 18.3247 84.5172 17.9059 84.1867 17.578L76.6515 10.0663C76.2124 9.62979 75.6183 9.38477 74.9992 9.38477C74.38 9.38477 73.7859 9.62979 73.3468 10.0663L65.8117 17.578C65.3703 18.0194 65.1224 18.6179 65.1224 19.2421C65.1224 19.8662 65.3703 20.4648 65.8117 20.9062C66.253 21.3475 66.8516 21.5954 67.4757 21.5954C68.0999 21.5954 68.6984 21.3475 69.1398 20.9062ZM80.8585 129.094L77.3429 132.609V114.844C77.3429 114.222 77.096 113.626 76.6564 113.186C76.2169 112.747 75.6208 112.5 74.9992 112.5C74.3776 112.5 73.7814 112.747 73.3419 113.186C72.9023 113.626 72.6554 114.222 72.6554 114.844V132.621L69.1398 129.105C68.922 128.887 68.6634 128.713 68.3785 128.595C68.0937 128.476 67.7884 128.415 67.4799 128.414C67.1714 128.414 66.8658 128.474 66.5805 128.592C66.2953 128.709 66.036 128.882 65.8175 129.1C65.599 129.317 65.4255 129.576 65.3069 129.861C65.1884 130.146 65.1271 130.451 65.1265 130.759C65.126 131.068 65.1862 131.374 65.3038 131.659C65.4213 131.944 65.5939 132.203 65.8117 132.422L73.3468 139.945C73.7859 140.382 74.38 140.627 74.9992 140.627C75.6183 140.627 76.2124 140.382 76.6515 139.945L84.1867 132.422C84.4052 132.203 84.5785 131.944 84.6968 131.658C84.8151 131.373 84.8759 131.067 84.8759 130.758C84.8759 130.449 84.8151 130.143 84.6968 129.857C84.5785 129.572 84.4052 129.312 84.1867 129.094C83.9681 128.875 83.7087 128.702 83.4232 128.584C83.1377 128.465 82.8316 128.404 82.5226 128.404C82.2135 128.404 81.9075 128.465 81.622 128.584C81.3365 128.702 81.0771 128.875 80.8585 129.094ZM41.671 53.0507L26.2726 44.1562L31.089 42.8671C31.4075 42.811 31.711 42.6897 31.9804 42.5106C32.2497 42.3315 32.4791 42.0987 32.654 41.8266C32.829 41.5546 32.9457 41.2493 32.997 40.93C33.0482 40.6106 33.0327 40.2841 32.9516 39.971C32.8705 39.6579 32.7255 39.365 32.5256 39.1107C32.3258 38.8564 32.0755 38.6462 31.7905 38.4933C31.5054 38.3405 31.1919 38.2483 30.8695 38.2225C30.5471 38.1967 30.2228 38.238 29.9171 38.3437L19.6281 41.0976C19.3234 41.172 19.0368 41.3068 18.7852 41.494C18.5335 41.6812 18.322 41.917 18.1632 42.1874C17.8588 42.7289 17.7749 43.3669 17.9288 43.9687L20.6945 54.2577C20.8284 54.7552 21.1226 55.1947 21.5314 55.5082C21.9402 55.8217 22.441 55.9918 22.9562 55.9921C23.1621 55.9929 23.3672 55.9653 23.5656 55.9101C24.1652 55.7481 24.676 55.3548 24.9859 54.8164C25.2957 54.2781 25.3791 53.6388 25.2179 53.039L23.9288 48.2226L39.3273 57.1054C39.6833 57.3119 40.0875 57.421 40.4992 57.4218C41.0143 57.4209 41.5148 57.2502 41.9233 56.9363C42.3318 56.6223 42.6254 56.1826 42.7588 55.685C42.8922 55.1873 42.858 54.6597 42.6613 54.1835C42.4647 53.7073 42.1167 53.3092 41.671 53.0507ZM129.304 95.7421C129.111 95.185 128.716 94.7209 128.196 94.4423C127.677 94.1637 127.072 94.0911 126.501 94.2389C125.93 94.3867 125.436 94.7442 125.117 95.2399C124.799 95.7357 124.678 96.3334 124.78 96.914L126.069 101.73L110.671 92.8944C110.135 92.6142 109.512 92.5518 108.932 92.7203C108.351 92.8887 107.858 93.2749 107.555 93.7983C107.253 94.3216 107.164 94.9417 107.308 95.5288C107.452 96.1159 107.817 96.6248 108.327 96.9491L123.726 105.844L118.909 107.133C118.363 107.281 117.888 107.623 117.574 108.094C117.26 108.565 117.127 109.134 117.199 109.696C117.272 110.258 117.546 110.774 117.97 111.15C118.395 111.525 118.941 111.734 119.507 111.738C119.713 111.74 119.918 111.712 120.116 111.656L130.405 108.902C130.704 108.824 130.984 108.687 131.229 108.5C131.474 108.313 131.68 108.079 131.835 107.812C132.139 107.271 132.223 106.633 132.069 106.031L129.304 95.7421ZM39.3273 92.8944L23.9288 101.777L25.2179 96.9608C25.3236 96.6552 25.3648 96.3309 25.3391 96.0085C25.3133 95.6861 25.2211 95.3725 25.0682 95.0875C24.9154 94.8025 24.7052 94.5521 24.4509 94.3523C24.1965 94.1525 23.9036 94.0074 23.5905 93.9263C23.2774 93.8452 22.9509 93.8298 22.6316 93.881C22.3122 93.9322 22.0069 94.049 21.7349 94.2239C21.4629 94.3989 21.23 94.6283 21.051 94.8976C20.8719 95.1669 20.7505 95.4704 20.6945 95.789L17.9288 106.031C17.7749 106.633 17.8588 107.271 18.1632 107.812C18.3181 108.079 18.5241 108.313 18.7694 108.5C19.0148 108.687 19.2946 108.824 19.5929 108.902L29.882 111.656C30.0802 111.712 30.2854 111.74 30.4913 111.738C31.0578 111.734 31.6036 111.525 32.0278 111.15C32.452 110.774 32.7259 110.258 32.7988 109.696C32.8717 109.134 32.7387 108.565 32.4244 108.094C32.11 107.623 31.6357 107.281 31.089 107.133L26.2726 105.844L41.671 96.9491C42.1812 96.6248 42.5463 96.1159 42.6901 95.5288C42.8339 94.9417 42.7453 94.3216 42.4428 93.7983C42.1403 93.2749 41.6473 92.8887 41.0667 92.7203C40.4861 92.5518 39.8629 92.6142 39.3273 92.8944ZM109.511 57.4218C109.922 57.421 110.327 57.3119 110.683 57.1054L126.081 48.2226L124.792 53.039C124.631 53.6388 124.714 54.2781 125.024 54.8164C125.334 55.3548 125.845 55.7481 126.444 55.9101C126.643 55.9653 126.848 55.9929 127.054 55.9921C127.569 55.9918 128.07 55.8217 128.479 55.5082C128.887 55.1947 129.182 54.7552 129.316 54.2577L132.081 43.9687C132.235 43.3669 132.151 42.7289 131.847 42.1874C131.692 41.9206 131.486 41.687 131.241 41.5C130.995 41.3129 130.715 41.1762 130.417 41.0976L120.128 38.3437C119.822 38.238 119.498 38.1967 119.176 38.2225C118.853 38.2483 118.54 38.3405 118.255 38.4933C117.97 38.6462 117.719 38.8564 117.52 39.1107C117.32 39.365 117.175 39.6579 117.094 39.971C117.012 40.2841 116.997 40.6106 117.048 40.93C117.099 41.2493 117.216 41.5546 117.391 41.8266C117.566 42.0987 117.795 42.3315 118.065 42.5106C118.334 42.6897 118.638 42.811 118.956 42.8671L123.773 44.1562L108.327 53.0507C107.882 53.3092 107.534 53.7073 107.337 54.1835C107.14 54.6597 107.106 55.1873 107.239 55.685C107.373 56.1826 107.667 56.6223 108.075 56.9363C108.483 57.2502 108.984 57.4209 109.499 57.4218H109.511Z" fill="white"/>
</svg>
