<svg width="150" height="150" viewBox="0 0 150 150" fill="none" xmlns="http://www.w3.org/2000/svg">
<path fill-rule="evenodd" clip-rule="evenodd" d="M28.125 20.2667C22.9473 20.2667 18.75 24.464 18.75 29.6417V123.392C18.75 128.569 22.9473 132.767 28.125 132.767H121.875C127.053 132.767 131.25 128.569 131.25 123.392V29.6417C131.25 24.464 127.053 20.2667 121.875 20.2667H28.125ZM53.2547 45.2837C53.2899 51.2603 48.8163 54.9429 43.5077 54.9165C38.5067 54.8902 34.1473 50.9087 34.1737 45.2925C34.2001 40.0103 38.3749 35.7652 43.7977 35.8882C49.2997 36.0113 53.2899 40.0455 53.2547 45.2837ZM76.7481 62.5277H60.9982H60.9894V116.027H77.6356V114.779C77.6356 112.404 77.6337 110.029 77.6319 107.654C77.6269 101.317 77.6212 94.9742 77.6537 88.6398C77.6625 87.1017 77.7325 85.5023 78.1281 84.0342C79.6131 78.5498 84.5444 75.008 90.0463 75.8786C93.5794 76.4317 95.9169 78.4799 96.9012 81.8111C97.5081 83.8936 97.7806 86.1348 97.8069 88.3061C97.8781 94.8536 97.8681 101.401 97.8581 107.949C97.8544 110.26 97.8506 112.573 97.8506 114.884V116.018H114.55V114.735C114.55 111.91 114.549 109.085 114.547 106.261C114.544 99.2017 114.54 92.1423 114.559 85.0805C114.567 81.8898 114.225 78.7436 113.443 75.6586C112.274 71.0705 109.857 67.2736 105.928 64.5317C103.142 62.5804 100.083 61.3236 96.6644 61.183C96.275 61.1668 95.8825 61.1456 95.4881 61.1243C93.74 61.0298 91.9631 60.9338 90.2919 61.2709C85.5106 62.2289 81.31 64.4174 78.1369 68.2755C77.7681 68.718 77.4075 69.1674 76.8694 69.838L76.7481 69.9898V62.5277ZM35.5103 116.044H52.0776V62.5625H35.5103V116.044Z" fill="black"/>
</svg>
