<svg width="150" height="150" viewBox="0 0 150 150" fill="none" xmlns="http://www.w3.org/2000/svg">
<path d="M84.3751 145.313H65.6251C64.5235 145.313 63.586 144.539 63.3282 143.484L60.1641 129.281C55.5704 128.039 51.1876 126.211 47.086 123.867L34.8047 131.672C33.8672 132.258 32.6719 132.117 31.8985 131.344L18.6329 118.078C18.2568 117.703 18.0195 117.211 17.9599 116.682C17.9002 116.154 18.0219 115.622 18.3047 115.172L26.1094 102.891C23.7657 98.7891 21.9376 94.4063 20.6954 89.8125L6.49224 86.6484C5.9709 86.5322 5.50511 86.2408 5.17248 85.8229C4.83984 85.405 4.66042 84.8857 4.66412 84.3516V65.6016C4.66412 64.5 5.43756 63.5625 6.49224 63.3047L20.6954 60.1406C21.9376 55.5469 23.7657 51.1641 26.1094 47.0625L18.3047 34.7813C17.7188 33.8438 17.8594 32.6484 18.6329 31.875L31.8985 18.6094C32.274 18.2333 32.7661 17.996 33.2942 17.9364C33.8222 17.8768 34.3549 17.9984 34.8047 18.2813L47.086 26.0859C51.1876 23.7422 55.5704 21.9375 60.1641 20.6719L63.3282 6.46875C63.5626 5.39062 64.5235 4.64062 65.6251 4.64062H84.3751C85.4766 4.64062 86.4141 5.41406 86.6719 6.46875L89.836 20.6719C94.4298 21.9141 98.8126 23.7422 102.914 26.0859L115.195 18.2813C116.133 17.6953 117.328 17.8359 118.102 18.6094L131.367 31.875C131.743 32.2505 131.981 32.7426 132.04 33.2707C132.1 33.7987 131.978 34.3314 131.695 34.7813L123.891 47.0625C126.234 51.1641 128.063 55.5469 129.305 60.1406L143.508 63.3047C144.586 63.5391 145.336 64.5 145.336 65.6016V84.3516C145.336 85.4531 144.563 86.3906 143.508 86.6484L129.305 89.8125C128.063 94.4063 126.234 98.7891 123.891 102.891L131.695 115.172C132.281 116.109 132.141 117.305 131.367 118.078L118.102 131.344C117.726 131.72 117.234 131.957 116.706 132.017C116.178 132.076 115.645 131.955 115.195 131.672L102.914 123.867C98.8126 126.211 94.4298 128.039 89.836 129.281L86.6719 143.484C86.4376 144.563 85.4766 145.313 84.3751 145.313ZM67.5001 140.625H82.5001L85.5704 126.844C85.7579 125.977 86.4376 125.297 87.3047 125.086C92.4141 123.844 97.2657 121.828 101.742 119.109C102.516 118.641 103.453 118.664 104.227 119.133L116.133 126.703L126.727 116.109L119.156 104.203C118.688 103.453 118.664 102.492 119.133 101.719C121.852 97.2422 123.867 92.3906 125.109 87.2813C125.32 86.4141 126 85.7344 126.867 85.5469L140.648 82.4766V67.4766L126.867 64.4062C126.441 64.3109 126.05 64.0978 125.74 63.7911C125.429 63.4845 125.21 63.0966 125.109 62.6719C123.867 57.5625 121.852 52.7109 119.133 48.2344C118.664 47.4609 118.688 46.5234 119.156 45.75L126.727 33.8437L116.133 23.25L104.227 30.8203C103.477 31.2891 102.516 31.3125 101.742 30.8438C97.2891 28.125 92.4141 26.1328 87.3047 24.8672C86.88 24.7661 86.4922 24.5478 86.1855 24.237C85.8788 23.9262 85.6657 23.5355 85.5704 23.1094L82.5001 9.32812H67.5001L64.4297 23.1094C64.2422 23.9766 63.5626 24.6562 62.6954 24.8672C57.586 26.1094 52.711 28.125 48.2579 30.8438C47.4844 31.3125 46.5469 31.2891 45.7735 30.8203L33.8672 23.25L23.2735 33.8437L30.8438 45.75C31.3126 46.5 31.336 47.4609 30.8672 48.2344C28.1448 52.7111 26.1289 57.5808 24.8907 62.6719C24.6797 63.5391 24.0001 64.2188 23.1329 64.4062L9.35162 67.4766V82.4766L23.1329 85.5469C24.0001 85.7344 24.6797 86.4141 24.8907 87.2813C26.1329 92.3906 28.1485 97.2422 30.8672 101.719C31.336 102.492 31.3126 103.43 30.8438 104.203L23.2735 116.109L33.8672 126.703L45.7735 119.133C46.5235 118.664 47.4844 118.641 48.2579 119.109C52.7344 121.828 57.586 123.844 62.6954 125.086C63.5626 125.297 64.2422 125.977 64.4297 126.844L67.5001 140.625Z" fill="white"/>
<path d="M84.375 108.797C83.8828 108.797 83.3906 108.633 82.9688 108.328C82.3828 107.883 82.0312 107.18 82.0312 106.453V90.7969C82.0312 90.0234 82.4063 89.3203 83.0391 88.875C84.8943 87.5769 86.41 85.8516 87.4584 83.8446C88.5067 81.8377 89.0569 79.608 89.0625 77.3438C89.0625 73.2188 87.3281 69.4688 84.375 66.8438V77.3438C84.375 78.6328 83.3203 79.6875 82.0312 79.6875H67.9687C66.6797 79.6875 65.625 78.6328 65.625 77.3438V66.8438C62.6719 69.4453 60.9375 73.2188 60.9375 77.3438C60.9375 81.9141 63.1875 86.2266 66.9609 88.875C67.5937 89.3203 67.9687 90.0234 67.9687 90.7969V106.453C67.9687 106.817 67.884 107.176 67.7213 107.501C67.5586 107.827 67.3223 108.11 67.0313 108.328C66.7402 108.546 66.4022 108.694 66.0443 108.759C65.6863 108.824 65.318 108.805 64.9687 108.703C50.1797 104.297 39.8672 90.4453 39.8672 75C39.8672 55.6172 55.6406 39.8438 75.0234 39.8438C94.4062 39.8438 110.18 55.6172 110.18 75C110.18 90.4453 99.8437 104.297 85.0781 108.703C84.8672 108.773 84.6328 108.797 84.3984 108.797H84.375ZM86.7187 91.9688V103.125C97.8984 98.4375 105.469 87.3047 105.469 75C105.469 58.1953 91.8047 44.5312 75 44.5312C58.1953 44.5312 44.5312 58.1953 44.5312 75C44.5312 87.3047 52.1016 98.4609 63.2812 103.125V91.9688C61.09 90.2122 59.3207 87.9863 58.1038 85.4552C56.8869 82.9241 56.2534 80.1522 56.25 77.3438C56.25 70.0313 60.3516 63.5391 66.9609 60.4219C67.3164 60.2539 67.7086 60.1786 68.101 60.2029C68.4935 60.2272 68.8734 60.3503 69.2054 60.5607C69.5375 60.7712 69.811 61.0622 70.0005 61.4068C70.1899 61.7513 70.2892 62.1381 70.2891 62.5313V75H79.6641V62.5313C79.6639 62.1381 79.7632 61.7513 79.9527 61.4068C80.1421 61.0622 80.4156 60.7712 80.7477 60.5607C81.0798 60.3503 81.4597 60.2272 81.8521 60.2029C82.2445 60.1786 82.6367 60.2539 82.9922 60.4219C89.6016 63.5391 93.7031 70.0313 93.7031 77.3438C93.7031 83.0156 91.1016 88.4063 86.6719 91.9688H86.7187Z" fill="white"/>
</svg>
