<svg width="150" height="150" viewBox="0 0 150 150" fill="none" xmlns="http://www.w3.org/2000/svg">
<path d="M75.0004 87.5C88.7879 87.5 100 76.2875 100 62.5C100 48.7125 88.7879 37.5 75.0004 37.5C61.2129 37.5 50.0004 48.7125 50.0004 62.5C50.0004 76.2875 61.2129 87.5 75.0004 87.5ZM75.0004 50C81.8941 50 87.5004 55.6062 87.5004 62.5C87.5004 69.3937 81.8941 75 75.0004 75C68.1066 75 62.5004 69.3937 62.5004 62.5C62.5004 55.6062 68.1066 50 75.0004 50Z" fill="white"/>
<path d="M71.3756 136.337C72.4333 137.093 73.7007 137.499 75.0005 137.499C76.3004 137.499 77.5678 137.093 78.6255 136.337C80.5255 134.994 125.182 102.75 125.001 62.5C125.001 34.9312 102.569 12.5 75.0005 12.5C47.4318 12.5 25.0006 34.9312 25.0006 62.4687C24.8193 102.75 69.4756 134.994 71.3756 136.337ZM75.0005 25C95.6818 25 112.501 41.8187 112.501 62.5312C112.632 90.2687 85.0755 115.175 75.0005 123.344C64.9318 115.169 37.3693 90.2562 37.5005 62.5C37.5005 41.8187 54.3193 25 75.0005 25Z" fill="white"/>
</svg>
