<svg width="150" height="150" viewBox="0 0 150 150" fill="none" xmlns="http://www.w3.org/2000/svg">
<path d="M110.67 76.8306C110.09 76.2496 109.401 75.7888 108.643 75.4743C107.885 75.1599 107.072 74.998 106.251 74.998C105.431 74.998 104.618 75.1599 103.86 75.4743C103.101 75.7888 102.413 76.2496 101.833 76.8306L91.8701 86.7931C87.2514 85.4181 78.6326 82.2931 73.1701 76.8306C67.7076 71.3681 64.5826 62.7493 63.2076 58.1306L73.1701 48.1681C73.751 47.5881 74.2119 46.8994 74.5263 46.1411C74.8408 45.3829 75.0026 44.5701 75.0026 43.7493C75.0026 42.9285 74.8408 42.1157 74.5263 41.3575C74.2119 40.5993 73.751 39.9105 73.1701 39.3306L48.1701 14.3306C47.5902 13.7496 46.9014 13.2888 46.1432 12.9743C45.385 12.6599 44.5722 12.498 43.7514 12.498C42.9305 12.498 42.1177 12.6599 41.3595 12.9743C40.6013 13.2888 39.9125 13.7496 39.3326 14.3306L22.3826 31.2806C20.0076 33.6556 18.6701 36.9181 18.7201 40.2493C18.8639 49.1493 21.2201 80.0618 45.5826 104.424C69.9451 128.787 100.858 131.137 109.764 131.287H109.939C113.239 131.287 116.358 129.987 118.72 127.624L135.67 110.674C136.251 110.094 136.712 109.406 137.026 108.647C137.341 107.889 137.503 107.076 137.503 106.256C137.503 105.435 137.341 104.622 137.026 103.864C136.712 103.106 136.251 102.417 135.67 101.837L110.67 76.8306ZM109.876 118.781C102.076 118.649 75.3889 116.556 54.4201 95.5806C33.3826 74.5431 31.3451 47.7618 31.2201 40.1181L43.7514 27.5868L59.9139 43.7493L51.8326 51.8306C51.098 52.5646 50.5579 53.4702 50.2611 54.4654C49.9642 55.4605 49.9201 56.514 50.1326 57.5306C50.2826 58.2493 53.9514 75.2931 64.3264 85.6681C74.7014 96.0431 91.7451 99.7118 92.4639 99.8618C93.4798 100.08 94.5343 100.04 95.5304 99.7437C96.5265 99.4477 97.4321 98.9059 98.1639 98.1681L106.251 90.0868L122.414 106.249L109.876 118.781Z" fill="white"/>
</svg>
