<svg width="150" height="150" viewBox="0 0 150 150" fill="none" xmlns="http://www.w3.org/2000/svg">
<g clip-path="url(#clip0_2163_44)">
<path d="M62.5328 10.0293C33.5488 10.0293 10.0527 33.5254 10.0527 62.5094C10.0527 91.4934 33.5488 114.989 62.5328 114.989C91.5168 114.989 115.013 91.4934 115.013 62.5094C114.981 33.5385 91.5037 10.0608 62.5328 10.0293ZM62.5328 15.0274C70.1396 15.0334 77.6333 16.8688 84.3818 20.3788C91.1303 23.8887 96.9357 28.9703 101.308 35.1948L95.0605 41.4424C93.5401 40.5223 91.7994 40.0302 90.0224 40.0179C84.5017 40.0179 80.0262 44.4934 80.0262 50.0141C80.0349 51.793 80.5245 53.5364 81.4432 55.0597L65.0794 71.4235C63.5596 70.4968 61.8139 70.0065 60.0338 70.0065C58.2537 70.0065 56.508 70.4968 54.9882 71.4235L43.6225 60.0578C44.5412 58.5345 45.0308 56.7911 45.0395 55.0122C45.0463 49.5025 40.5855 45.0304 35.0757 45.0235C30.519 45.0179 26.5377 48.1002 25.4019 52.5132H16.1304C20.8621 30.663 40.1763 15.0602 62.5328 15.0274ZM95.0205 50.0141C95.0205 52.7746 92.7829 55.0122 90.0224 55.0122C87.2619 55.0122 85.0243 52.7746 85.0243 50.0141C85.0243 47.2536 87.2619 45.016 90.0224 45.016C92.7829 45.016 95.0205 47.2536 95.0205 50.0141ZM65.0319 80.0028C65.0319 82.7633 62.7943 85.0009 60.0338 85.0009C57.2733 85.0009 55.0357 82.7633 55.0357 80.0028C55.0357 77.2422 57.2733 75.0047 60.0338 75.0047C62.7943 75.0047 65.0319 77.2422 65.0319 80.0028ZM40.0414 55.0122C40.0414 57.7728 37.8038 60.0103 35.0433 60.0103C32.2827 60.0103 30.0452 57.7728 30.0452 55.0122C30.0452 52.2517 32.2827 50.0141 35.0433 50.0141C37.8038 50.0141 40.0414 52.2517 40.0414 55.0122ZM85.6035 104.027C78.546 107.945 70.6052 109.998 62.5328 109.991C36.3271 110.009 15.0686 88.7797 15.0508 62.5741C15.0496 60.8828 15.1389 59.1925 15.3182 57.511H25.4019C26.538 61.9109 30.499 64.991 35.0433 65.0081C36.8221 64.9995 38.5655 64.5099 40.0888 63.5912L51.4545 74.9569C50.5358 76.4802 50.0462 78.2236 50.0376 80.0025C50.0376 85.5232 54.5131 89.9987 60.0338 89.9987C65.5545 89.9987 70.03 85.5232 70.03 80.0025C70.0213 78.2236 69.5317 76.4802 68.613 74.9569L84.9768 58.5931C86.5001 59.5118 88.2435 60.0014 90.0224 60.01C95.5431 60.01 100.019 55.5345 100.019 50.0138C100.01 48.2349 99.5203 46.4915 98.6017 44.9682L104.05 39.5228C116.768 62.4291 108.509 91.3085 85.6035 104.027Z" fill="white"/>
<path d="M125.009 25.0239C129.554 25.0068 133.515 21.927 134.651 17.5268H150V12.5287H134.651C133.515 8.12847 129.554 5.0487 125.009 5.03152C119.489 5.03152 115.013 9.50701 115.013 15.0277C115.022 16.8066 115.511 18.55 116.43 20.0733L112.039 24.4642C91.0301 -2.90703 51.81 -8.06445 24.4388 12.9448C-2.93242 33.954 -8.08984 73.1744 12.9194 100.546C32.7506 126.382 69.1028 132.649 96.4402 114.945L103.982 122.487L107.516 126.021L127.633 146.138C132.75 151.255 141.045 151.255 146.161 146.138C151.278 141.022 151.278 132.727 146.161 127.61L126.044 107.493L122.51 103.959L114.968 96.4169C128.357 75.7947 128.357 49.2251 114.968 28.6026L119.966 23.6045C121.489 24.5235 123.231 25.014 125.009 25.0239ZM125.009 10.0296C127.77 10.0296 130.007 12.2672 130.007 15.0277C130.007 17.7882 127.77 20.0258 125.009 20.0258C122.249 20.0258 120.011 17.7882 120.011 15.0277C120.011 12.2672 122.249 10.0296 125.009 10.0296ZM142.628 131.144C145.828 134.273 145.887 139.404 142.758 142.604C139.629 145.805 134.498 145.863 131.297 142.735C131.253 142.692 131.21 142.648 131.167 142.604L111.05 122.487L122.51 111.026L142.628 131.144ZM118.977 107.493L107.516 118.953L100.599 112.036C100.951 111.766 101.281 111.469 101.628 111.191C101.976 110.914 102.378 110.582 102.75 110.269C103.298 109.809 103.837 109.344 104.367 108.867C104.64 108.617 104.9 108.367 105.167 108.117C106.191 107.158 107.184 106.165 108.143 105.141C108.393 104.874 108.643 104.614 108.893 104.341C109.37 103.811 109.837 103.271 110.295 102.724C110.608 102.355 110.915 101.981 111.217 101.602C111.492 101.258 111.789 100.928 112.059 100.575L118.977 107.493ZM109.285 95.8846C108.498 96.9842 107.686 98.0613 106.829 99.0984C106.579 99.4008 106.311 99.6931 106.054 99.9905C105.291 100.878 104.501 101.741 103.685 102.58C103.33 102.946 102.969 103.307 102.603 103.662C101.766 104.48 100.903 105.27 100.014 106.031C99.7165 106.281 99.4241 106.553 99.1217 106.805C98.0846 107.663 97.0075 108.475 95.9079 109.262C70.0377 127.744 34.0829 121.755 15.6009 95.8846C-2.88119 70.0144 3.1081 34.0596 28.9783 15.5775C54.8485 -2.90453 90.8033 3.08445 109.285 28.955C123.586 48.973 123.586 75.8665 109.285 95.8846Z" fill="white"/>
</g>
<defs>
<clipPath id="clip0_2163_44">
<rect width="150" height="150" fill="white"/>
</clipPath>
</defs>
</svg>
