<svg width="150" height="150" viewBox="0 0 150 150" fill="none" xmlns="http://www.w3.org/2000/svg">
<path d="M80.962 150C80.3693 150 79.7813 149.888 79.2191 149.662C78.6433 149.433 78.1191 149.09 77.677 148.656C77.2349 148.221 76.8838 147.703 76.6442 147.131L59.1063 105.575L38.263 124C37.3876 124.9 35.8188 125.544 34.1937 125.544C30.7809 125.544 28 122.756 28 119.325V6.21885C28 2.78789 30.7809 0 34.1934 0C35.6377 0 37.0375 0.505957 38.2252 1.46836L119.981 84.3691C121.257 85.9371 121.75 87.3185 121.75 88.7558C121.75 92.1812 118.969 94.9746 115.557 94.9746H87.7873L104.688 135.056C105.687 137.425 104.594 140.15 102.238 141.175L82.8309 149.612C82.2408 149.867 81.6049 149.999 80.962 150ZM60.8937 93.0565C61.244 93.0565 61.5874 93.0943 61.9375 93.1755C63.4059 93.5121 64.6313 94.5316 65.2129 95.9256L83.4432 139.125L94.2499 134.425L76.4063 92.1067C76.1051 91.3944 75.985 90.6185 76.0569 89.8484C76.1288 89.0783 76.3904 88.338 76.8183 87.6938C77.247 87.0502 77.8279 86.5224 78.5094 86.1571C79.1909 85.7918 79.952 85.6003 80.7253 85.5996H108.068L37.375 13.9184V112.287L57.7879 94.2319C58.6453 93.4747 59.7497 93.0567 60.8937 93.0565ZM32.1874 116.875C32.0556 116.975 31.9378 117.081 31.8247 117.193L32.1874 116.875Z" fill="white"/>
</svg>
