<svg width="150" height="150" viewBox="0 0 150 150" fill="none" xmlns="http://www.w3.org/2000/svg">
<g clip-path="url(#clip0_2163_31)">
<path d="M52.0768 35.221C51.6459 36.5473 52.0701 37.9687 53.157 38.8427L62.8352 46.6216L59.5777 58.6037C59.2121 59.949 59.7046 61.3482 60.8334 62.1691C61.9625 62.9883 63.4446 63.0243 64.6115 62.2608L75.0005 55.4602L85.3897 62.2611C85.9312 62.618 86.5652 62.8088 87.2137 62.8099C87.9164 62.8088 88.6005 62.5844 89.1673 62.1691C90.2967 61.3491 90.7894 59.949 90.4229 58.6037L87.1654 46.6219L96.843 38.8433C97.9308 37.9696 98.3551 36.5479 97.9238 35.221C97.4929 33.8938 96.3139 32.993 94.9209 32.9256L82.5186 32.3209L78.1112 20.7129C77.6164 19.4089 76.395 18.566 75.0002 18.566C73.6054 18.566 72.384 19.4086 71.8894 20.7126L67.4817 32.3212L55.0804 32.9256C53.6867 32.993 52.5078 33.8938 52.0768 35.221ZM68.5991 36.9595C69.2458 36.9281 69.8692 36.7087 70.3929 36.3281C70.9167 35.9475 71.318 35.4223 71.5475 34.817L74.9999 25.7247L78.4522 34.8179C78.6822 35.4229 79.0836 35.9477 79.6073 36.3281C80.1309 36.7085 80.7542 36.9279 81.4007 36.9595L91.1146 37.4332L83.5338 43.5261C83.0291 43.9316 82.6538 44.4756 82.4538 45.0913C82.2537 45.7071 82.2377 46.3678 82.4076 46.9925L84.9591 56.3774L76.8216 51.0504C76.2798 50.6959 75.6465 50.5072 74.9991 50.5072C74.3517 50.5073 73.7184 50.6961 73.1767 51.0507L65.0398 56.3774L67.5913 46.9931C67.7614 46.3683 67.7454 45.7074 67.5453 45.0915C67.3452 44.4757 66.9697 43.9316 66.4648 43.5261L58.8843 37.4335L68.5991 36.9595ZM72.6561 10.9447V2.34375C72.6561 1.72215 72.9031 1.12601 73.3426 0.686469C73.7821 0.24693 74.3783 0 74.9999 0C75.6215 0 76.2176 0.24693 76.6572 0.686469C77.0967 1.12601 77.3436 1.72215 77.3436 2.34375V10.9447C77.3436 11.5663 77.0967 12.1625 76.6572 12.602C76.2176 13.0415 75.6215 13.2885 74.9999 13.2885C74.3783 13.2885 73.7821 13.0415 73.3426 12.602C72.9031 12.1625 72.6561 11.5663 72.6561 10.9447ZM86.9293 24.8309C86.5134 24.3689 86.298 23.7607 86.3305 23.14C86.363 22.5192 86.6408 21.9368 87.1027 21.5209L96.6872 12.8906C96.9159 12.6847 97.183 12.5258 97.4731 12.423C97.7632 12.3202 98.0708 12.2756 98.3781 12.2917C98.6855 12.3078 98.9867 12.3843 99.2645 12.5168C99.5423 12.6493 99.7913 12.8352 99.9973 13.0639C100.203 13.2926 100.362 13.5597 100.465 13.8498C100.568 14.14 100.612 14.4475 100.596 14.7549C100.58 15.0622 100.504 15.3634 100.371 15.6412C100.239 15.9191 100.053 16.1681 99.824 16.374L90.2392 25.0043C89.8094 25.3925 89.2507 25.607 88.6716 25.6063C88.343 25.6068 88.0179 25.538 87.7177 25.4044C87.4175 25.2707 87.1489 25.0753 86.9293 24.8309ZM50.0023 13.0641C50.2083 12.8353 50.4573 12.6493 50.7351 12.5168C51.0129 12.3843 51.3141 12.3078 51.6215 12.2917C51.9289 12.2756 52.2365 12.3202 52.5266 12.423C52.8168 12.5257 53.0839 12.6846 53.3126 12.8906L62.8973 21.5209C63.3593 21.9369 63.637 22.5193 63.6695 23.1401C63.702 23.7608 63.4866 24.3691 63.0706 24.831C62.6547 25.2929 62.0722 25.5707 61.4515 25.6032C60.8307 25.6357 60.2225 25.4203 59.7605 25.0043L50.1758 16.374C49.7138 15.9581 49.4361 15.3757 49.4035 14.755C49.371 14.1342 49.5864 13.526 50.0023 13.0641ZM105.068 38.8427L114.747 46.6216L111.489 58.6037C111.124 59.949 111.616 61.3482 112.745 62.1691C113.873 62.9883 115.355 63.024 116.523 62.2608L126.912 55.4602L137.301 62.2611C137.843 62.618 138.477 62.8088 139.125 62.8099C139.828 62.8088 140.512 62.5844 141.079 62.1691C142.207 61.3497 142.7 59.9502 142.334 58.6037L139.077 46.6219L148.754 38.8433C149.842 37.9699 150.266 36.5481 149.835 35.221C149.404 33.8938 148.225 32.993 146.832 32.9256L134.43 32.3209L130.023 20.7129C129.528 19.4089 128.307 18.566 126.912 18.566C125.517 18.566 124.295 19.4086 123.801 20.7126L119.393 32.3209L106.992 32.9253C105.598 32.9927 104.419 33.8938 103.988 35.221C103.557 36.5479 103.981 37.9696 105.068 38.8427ZM120.51 36.9595C121.157 36.9281 121.781 36.7086 122.305 36.328C122.828 35.9474 123.23 35.4221 123.46 34.8167L126.912 25.7244L130.363 34.8164C130.593 35.4218 130.994 35.9471 131.518 36.3277C132.042 36.7083 132.666 36.9278 133.312 36.9592L143.026 37.4329L135.446 43.5252C134.941 43.9306 134.566 44.4747 134.366 45.0905C134.165 45.7064 134.149 46.3673 134.319 46.9922L136.871 56.3772L128.733 51.0501C128.192 50.6954 127.558 50.5065 126.911 50.5065C126.263 50.5066 125.63 50.6956 125.088 51.0504L116.952 56.3772L119.503 46.9928C119.673 46.3679 119.657 45.7071 119.457 45.0913C119.257 44.4755 118.881 43.9314 118.377 43.5258L110.796 37.4329L120.51 36.9595ZM1.24501 38.8427L10.9232 46.6216L7.66571 58.6037C7.30009 59.949 7.79257 61.3482 8.92138 62.1691C10.0505 62.9883 11.5326 63.0243 12.6995 62.2608L23.0885 55.4602L33.4777 62.2611C34.0192 62.618 34.6532 62.8088 35.3017 62.8099C36.0044 62.8088 36.6885 62.5844 37.2553 62.1691C38.3841 61.3497 38.8768 59.9502 38.5109 58.6037L35.2534 46.6219L44.931 38.8433C46.018 37.9705 46.4425 36.549 46.0115 35.2195C45.5797 33.8933 44.4008 32.9927 43.0089 32.9253L30.6066 32.3206L26.1995 20.7129C25.7047 19.4089 24.4833 18.566 23.0885 18.566C21.6933 18.566 20.472 19.4086 19.9771 20.7126L15.57 32.3209L3.16864 32.9253C1.77499 32.9927 0.596083 33.8938 0.165419 35.2195C-0.26671 36.547 0.157216 37.9693 1.24501 38.8427ZM16.6868 36.9595C17.3336 36.9281 17.9572 36.7086 18.4811 36.328C19.005 35.9474 19.4064 35.4221 19.6361 34.8167L23.0882 25.7244L26.5399 34.8164C26.7696 35.4218 27.171 35.9471 27.6948 36.3277C28.2187 36.7083 28.8422 36.9278 29.489 36.9592L39.2029 37.4329L31.6229 43.5252C31.118 43.9306 30.7424 44.4747 30.5422 45.0905C30.342 45.7064 30.3259 46.3673 30.4959 46.9922L33.0474 56.3772L24.9099 51.0501C24.3682 50.6954 23.7348 50.5065 23.0874 50.5065C22.44 50.5066 21.8066 50.6956 21.265 51.0504L13.1281 56.3772L15.6796 46.9928C15.8495 46.3679 15.8334 45.7071 15.6333 45.0913C15.4333 44.4755 15.0578 43.9314 14.5531 43.5258L6.97255 37.4329L16.6868 36.9595ZM149.631 124.492C147.982 119.167 144.604 114.385 140.12 111.027C138.002 109.439 135.659 108.176 133.169 107.28C136.588 104.597 138.791 100.431 138.791 95.7571C138.791 87.6812 132.221 81.111 124.145 81.111C116.069 81.111 109.499 87.6812 109.499 95.7571C109.499 100.425 111.697 104.587 115.109 107.271C110.536 108.904 106.484 111.772 103.381 115.637C101.919 113.591 100.242 111.709 98.3773 110.023C94.6273 106.628 90.1823 104.092 85.3519 102.592C90.4305 99.225 93.788 93.4603 93.788 86.9238C93.788 76.5645 85.3596 68.1363 75.0002 68.1363C64.6408 68.1363 56.2124 76.5645 56.2124 86.9238C56.2124 93.4603 59.5695 99.225 64.6481 102.592C59.8176 104.092 55.3725 106.628 51.6224 110.023C49.7581 111.709 48.0806 113.591 46.6191 115.636C43.5166 111.771 39.4648 108.903 34.891 107.27C38.3032 104.586 40.5014 100.424 40.5014 95.7562C40.5014 87.6803 33.9309 81.1102 25.8553 81.1102C17.7793 81.1102 11.2089 87.6803 11.2089 95.7562C11.2089 100.43 13.412 104.596 16.8309 107.28C14.3403 108.175 11.9974 109.438 9.87968 111.026C5.3952 114.383 2.01757 119.166 0.368447 124.491C-0.393565 126.951 0.028603 129.447 1.55702 131.521C3.08515 133.594 5.34511 134.735 7.9203 134.735H40.3206V138.965C40.3206 145.05 45.2709 150 51.3558 150H98.6439C104.729 150 109.679 145.05 109.679 138.965V134.736H142.079C144.655 134.736 146.915 133.595 148.443 131.522C149.971 129.448 150.393 126.952 149.631 124.492ZM124.145 85.7985C129.636 85.7985 134.104 90.266 134.104 95.7571C134.104 101.249 129.636 105.716 124.145 105.716C118.654 105.716 114.186 101.249 114.186 95.7571C114.186 90.266 118.654 85.7985 124.145 85.7985ZM60.8999 86.9238C60.8999 79.149 67.2254 72.8238 75.0002 72.8238C82.775 72.8238 89.1005 79.149 89.1005 86.9238C89.1005 94.6963 82.7791 101.02 75.0078 101.024H74.9923C67.221 101.019 60.8999 94.696 60.8999 86.9238ZM25.8553 85.7974C31.3464 85.7974 35.8139 90.2648 35.8139 95.756C35.8139 101.247 31.3464 105.715 25.8553 105.715C20.3639 105.715 15.8964 101.247 15.8964 95.756C15.8964 90.2648 20.3639 85.7974 25.8553 85.7974ZM40.625 130.047H7.92059C6.84188 130.047 5.97059 129.607 5.33046 128.739C4.69003 127.871 4.52743 126.908 4.84647 125.878C7.71288 116.621 16.1559 110.402 25.8553 110.402C33.1921 110.402 39.8756 113.947 43.9862 119.948C42.3528 123.122 41.2191 126.528 40.625 130.047ZM104.992 138.965C104.992 142.465 102.144 145.312 98.6439 145.312H51.3558C47.8557 145.312 45.0081 142.465 45.0081 138.965V132.519C46.705 117.229 59.5733 105.715 74.9923 105.711L75.0002 105.712L75.0078 105.711C90.4264 105.715 103.295 117.229 104.992 132.519V138.965ZM144.67 128.74C144.029 129.608 143.158 130.049 142.079 130.049H109.375C108.781 126.529 107.647 123.122 106.014 119.949C110.125 113.948 116.808 110.404 124.145 110.404C133.844 110.404 142.287 116.623 145.154 125.879C145.473 126.909 145.31 127.871 144.67 128.74Z" fill="white"/>
</g>
<defs>
<clipPath id="clip0_2163_31">
<rect width="150" height="150" fill="white"/>
</clipPath>
</defs>
</svg>
