<svg width="200" height="56" viewBox="0 0 200 56" fill="none" xmlns="http://www.w3.org/2000/svg">
<path fill-rule="evenodd" clip-rule="evenodd" d="M68.5702 16.75L57.0607 39.25H46.25L51.0667 29.925H50.8506C46.8769 35.0835 40.9479 38.4794 32.5 39.25V30.0541C32.5 30.0541 37.9043 29.7349 41.0814 26.3947H32.5V16.7502H42.1445V24.6826L42.361 24.6818L46.3021 16.7502H53.596V24.6323L53.8124 24.632L57.9014 16.75H68.5702Z" fill="black"/>
<path d="M131.333 36.7665H134.439V18.9375H131.333V36.7665Z" fill="black"/>
<path fill-rule="evenodd" clip-rule="evenodd" d="M114.209 36.5844C114.884 36.8651 115.571 37.0054 116.269 37.0054C117.421 37.0054 118.453 36.7248 119.363 36.1634C120.273 35.6022 120.979 34.8286 121.48 33.8424C121.98 32.8488 122.23 31.7223 122.23 30.4632C122.23 29.2041 121.973 28.0777 121.457 27.084C120.941 26.0904 120.224 25.3205 119.306 24.7744C118.389 24.2206 117.346 23.9476 116.177 23.9552C115.434 23.9552 114.721 24.0993 114.038 24.3875C113.356 24.6758 112.787 25.0854 112.332 25.6163C112.297 25.6567 112.263 25.6976 112.229 25.7388V18.9489H109.112V36.7666H112.207L112.2 35.1021C112.28 35.2002 112.366 35.2961 112.457 35.3898C112.95 35.8981 113.534 36.2962 114.209 36.5844ZM117.395 33.7059C116.887 34.0169 116.306 34.1724 115.654 34.1724C115.009 34.1724 114.418 34.0131 113.879 33.6946C113.341 33.3683 112.912 32.9247 112.593 32.3633C112.282 31.8021 112.127 31.1648 112.127 30.4518C112.119 29.7388 112.271 29.1017 112.582 28.5404C112.901 27.9715 113.329 27.5316 113.868 27.2206C114.406 26.902 115.002 26.7465 115.654 26.7541C116.306 26.7465 116.887 26.8982 117.395 27.2092C117.911 27.5126 118.305 27.9488 118.578 28.5176C118.859 29.0789 118.999 29.7237 118.999 30.4518C118.999 31.1801 118.859 31.8248 118.578 32.3861C118.305 32.9474 117.911 33.3873 117.395 33.7059Z" fill="black"/>
<path d="M73.0701 20.0184H76.6199L79.7954 31.6154L83.1736 20.0184H86.1318L89.7954 31.3827L92.8447 20.0184H96.0987L91.2973 36.7665H88.2367L84.5112 25.6645L81.0914 36.7665H77.9967L73.0701 20.0184Z" fill="black"/>
<path fill-rule="evenodd" clip-rule="evenodd" d="M101.341 37.0623C100.105 37.0699 98.9898 36.7968 97.9962 36.2431C97.01 35.6818 96.2327 34.9043 95.6637 33.9106C95.1024 32.917 94.8218 31.783 94.8218 30.5086C94.8218 29.2723 95.11 28.1535 95.6865 27.1523C96.2629 26.151 97.0441 25.3697 98.0303 24.8084C99.0164 24.2471 100.116 23.9665 101.33 23.9665C102.695 23.9665 103.89 24.2699 104.914 24.8767C105.945 25.4835 106.715 26.3444 107.224 27.4595C107.739 28.5669 107.925 29.8374 107.781 31.271H98.0352C98.0624 31.8421 98.2049 32.3618 98.4627 32.8298C98.7509 33.3455 99.1529 33.7475 99.6686 34.0358C100.185 34.324 100.761 34.4681 101.398 34.4681C101.884 34.4605 102.335 34.3771 102.752 34.2179C103.169 34.051 103.522 33.8273 103.81 33.5465C104.106 33.2659 104.315 32.9474 104.436 32.5909H107.69C107.493 33.4631 107.098 34.2406 106.507 34.9233C105.915 35.5984 105.172 36.1255 104.277 36.5048C103.382 36.884 102.403 37.0699 101.341 37.0623ZM98.474 28.1421C98.2923 28.4591 98.1663 28.8004 98.0962 29.1661H104.557C104.51 28.7041 104.367 28.2832 104.129 27.9032C103.856 27.4557 103.484 27.1105 103.014 26.8678C102.544 26.6175 102.013 26.4924 101.421 26.4924C100.791 26.4924 100.219 26.6365 99.7028 26.9247C99.187 27.2129 98.7774 27.6188 98.474 28.1421Z" fill="black"/>
<path d="M124.518 24.2282C124.518 23.2118 124.749 22.3092 125.212 21.5203C125.674 20.7239 126.323 20.1057 127.157 19.6657C127.999 19.2182 128.982 18.9868 130.104 18.9717V21.7365C129.581 21.7441 129.133 21.854 128.762 22.0664C128.398 22.2712 128.117 22.5708 127.92 22.9653C127.738 23.3284 127.64 23.7494 127.626 24.2282H130.036V26.8565H127.624V36.7665H124.518V26.8565H122.515V24.2282H124.518Z" fill="black"/>
<path fill-rule="evenodd" clip-rule="evenodd" d="M142.335 37.0395C141.068 37.0395 139.934 36.7626 138.933 36.209C137.939 35.6476 137.158 34.874 136.589 33.8878C136.028 32.8942 135.747 31.7678 135.747 30.5086C135.747 29.242 136.028 28.1117 136.589 27.1181C137.158 26.1168 137.939 25.3393 138.933 24.7856C139.934 24.2319 141.068 23.955 142.335 23.955C143.609 23.955 144.747 24.2319 145.748 24.7856C146.757 25.3393 147.542 26.113 148.103 27.1067C148.665 28.1003 148.949 29.2343 148.957 30.5086C148.949 31.7678 148.665 32.8942 148.103 33.8878C147.55 34.874 146.768 35.6476 145.759 36.209C144.751 36.7626 143.609 37.0395 142.335 37.0395ZM142.335 34.1837C143.002 34.1837 143.594 34.032 144.11 33.7286C144.626 33.4176 145.024 32.9852 145.304 32.4315C145.585 31.8702 145.725 31.2292 145.725 30.5086C145.725 29.7805 145.585 29.1357 145.304 28.5744C145.024 28.0131 144.626 27.5808 144.11 27.2774C143.594 26.9664 143.002 26.8109 142.335 26.8109C141.675 26.8109 141.087 26.9664 140.571 27.2774C140.063 27.5808 139.669 28.0131 139.388 28.5744C139.107 29.1357 138.971 29.7805 138.978 30.5086C138.978 31.2292 139.119 31.8702 139.399 32.4315C139.688 32.9852 140.082 33.4176 140.583 33.7286C141.091 34.032 141.675 34.1837 142.335 34.1837Z" fill="black"/>
<path d="M152.313 24.2282H148.854L152.598 36.7665H155.624L158.086 28.7583L160.744 36.7665H163.725L167.48 24.2282H164.351L162.221 32.0325L159.867 24.2282H156.841L154.499 32.2044L152.313 24.2282Z" fill="black"/>
</svg>
